<svg width="15" height="45" viewBox="0 0 15 45" fill="none" xmlns="http://www.w3.org/2000/svg">
<g clip-path="url(#clip0_3_361)">
<path d="M12.0099 16.2895H10.9894C10.88 15.4785 10.4836 14.7335 9.87219 14.1896C9.26073 13.6457 8.47464 13.3389 7.6564 13.3247C6.83816 13.3389 6.05207 13.6457 5.44061 14.1896C4.82915 14.7335 4.4328 15.4785 4.3234 16.2895H3.3034C2.74219 16.2899 2.20406 16.5129 1.80715 16.9097C1.41024 17.3064 1.18698 17.8445 1.1864 18.4057V26.1212C1.1869 26.6824 1.41001 27.2204 1.80675 27.6172C2.20349 28.014 2.74146 28.2373 3.3026 28.2379H12.0096C12.5708 28.2374 13.109 28.0143 13.5058 27.6174C13.9027 27.2206 14.1259 26.6825 14.1264 26.1212V18.4057C14.1258 17.8446 13.9026 17.3066 13.5058 16.9099C13.109 16.5131 12.571 16.29 12.0099 16.2895ZM7.6564 14.4243C8.18381 14.4358 8.69152 14.6269 9.09558 14.966C9.49965 15.3052 9.77588 15.7721 9.8786 16.2895H5.4342C5.53692 15.7721 5.81315 15.3052 6.21722 14.966C6.62128 14.6269 7.12899 14.4358 7.6564 14.4243ZM13.0264 26.1212C13.0261 26.3908 12.9189 26.6492 12.7284 26.8399C12.5378 27.0306 12.2794 27.1379 12.0098 27.1383H3.3029C3.03334 27.1379 2.77496 27.0305 2.58441 26.8399C2.39386 26.6492 2.28669 26.3908 2.2864 26.1212V18.4057C2.28672 18.1362 2.39393 17.8778 2.58451 17.6872C2.77509 17.4966 3.03348 17.3894 3.303 17.3891H12.01C12.2795 17.3895 12.5378 17.4967 12.7284 17.6873C12.9189 17.8779 13.0261 18.1362 13.0264 18.4057V26.1212Z" fill="white" fill-opacity="0.8"/>
</g>
<defs>
<clipPath id="clip0_3_361">
<rect width="14" height="44" fill="white" transform="translate(0.656372 0.26123)"/>
</clipPath>
</defs>
</svg>
