<svg width="15" height="45" viewBox="0 0 15 45" fill="none" xmlns="http://www.w3.org/2000/svg">
<g clip-path="url(#clip0_3_292)">
<path d="M13.7918 17.9435C13.2709 18.2624 12.8394 18.7083 12.5378 19.2393C12.2361 19.7704 12.0741 20.3693 12.067 20.98C12.069 21.6674 12.2727 22.339 12.6527 22.9118C13.0327 23.4845 13.5724 23.9332 14.2049 24.2023C13.9555 25.0069 13.5864 25.7694 13.1101 26.4641C12.4285 27.4453 11.7158 28.4264 10.6314 28.4264C9.54697 28.4264 9.26807 27.7964 8.01837 27.7964C6.79967 27.7964 6.36587 28.4471 5.37437 28.4471C4.38287 28.4471 3.69097 27.5382 2.89567 26.4228C1.84514 24.8603 1.26778 23.0278 1.23287 21.1452C1.23287 18.0468 3.24687 16.4047 5.22977 16.4047C6.28327 16.4047 7.16117 17.0966 7.82217 17.0966C8.45217 17.0966 9.43337 16.3633 10.6314 16.3633C11.2473 16.3474 11.8578 16.4832 12.4089 16.7588C12.96 17.0344 13.4349 17.4412 13.7918 17.9435ZM10.0634 15.0517C10.5915 14.4305 10.8904 13.6468 10.9103 12.8317C10.9112 12.7243 10.9008 12.617 10.8793 12.5117C9.97213 12.6003 9.13328 13.0327 8.53477 13.7201C8.00158 14.3166 7.69137 15.0793 7.65687 15.8786C7.65727 15.9758 7.66766 16.0727 7.68787 16.1678C7.75939 16.1813 7.83199 16.1883 7.90477 16.1885C8.32285 16.1553 8.72979 16.0373 9.10087 15.8419C9.47195 15.6465 9.79942 15.3776 10.0634 15.0517Z" fill="white" fill-opacity="0.8"/>
</g>
<defs>
<clipPath id="clip0_3_292">
<rect width="14" height="44" fill="white" transform="translate(0.718872 0.26123)"/>
</clipPath>
</defs>
</svg>
