<svg width="16" height="45" viewBox="0 0 16 45" fill="none" xmlns="http://www.w3.org/2000/svg">
<g clip-path="url(#clip0_3_358)">
<path d="M14.3762 27.4634L10.5062 23.5934C11.2072 22.6644 11.6282 21.5124 11.6282 20.2614C11.6282 17.2014 9.1392 14.7114 6.0782 14.7114C3.0182 14.7114 0.528198 17.2014 0.528198 20.2614C0.528198 23.3224 3.0182 25.8114 6.0782 25.8114C7.3292 25.8114 8.4812 25.3904 9.4102 24.6894L13.2802 28.5594C13.4312 28.7104 13.6302 28.7874 13.8282 28.7874C14.0262 28.7874 14.2242 28.7114 14.3762 28.5594C14.6792 28.2564 14.6792 27.7664 14.3762 27.4634ZM1.6282 20.2614C1.6282 17.8074 3.6252 15.8114 6.0782 15.8114C8.5322 15.8114 10.5282 17.8084 10.5282 20.2614C10.5282 22.7144 8.5322 24.7114 6.0782 24.7114C3.6242 24.7114 1.6282 22.7154 1.6282 20.2614Z" fill="white" fill-opacity="0.8"/>
</g>
<defs>
<clipPath id="clip0_3_358">
<rect width="15" height="44" fill="white" transform="translate(0.0782471 0.26123)"/>
</clipPath>
</defs>
</svg>
